<svg xmlns="http://www.w3.org/2000/svg" viewBox="0 0 1246 1246"><style>#bg{fill:#fff}#text{fill:#db7093}@media (prefers-color-scheme:dark){#bg{fill:#db7093}#text{fill:#fff}}</style><rect id="bg" width="1246" height="1246" rx="368.387" ry="368.387"/><path id="text" d="M420.315 1006.906q-87.89 0-146.625-47.14t-58.718-137.438q0-69.093 33.359-107.266 33.351-38.155 86.688-55.531a554.938 554.938 0 01112.859-23.765q81.093-8.79 116.453-16.375 35.345-7.595 35.359-38.766v-2.391q0-45.14-26.765-69.906t-77.11-24.781q-53.132 0-84.093 23.172t-41.75 54.734L234.94 542.281q23.954-83.883 93.688-126.64 69.7-42.75 166.391-42.75a381.088 381.088 0 0187.89 10.39 250.613 250.613 0 0180.5 34.36q36.563 23.976 58.735 64.718 22.171 40.758 22.171 101.469v410.688H605.284v-84.3h-4.8q-19.593 38.765-63.718 67.718-44.154 28.973-116.451 28.972zm37.547-106.281q65.508 0 103.86-37.547t38.359-88.687v-72.313q-9.187 7.594-33.75 13.391t-52.141 9.781q-27.563 4.008-46.734 6.8-48.351 6.8-80.7 26.562-32.367 19.782-32.359 61.328 0 39.962 29.156 60.329t74.309 20.356zM944.5 1003.3q-36.375 0-62.328-25.766-25.97-25.758-25.563-62.109-.4-35.954 25.563-61.531 25.968-25.548 62.328-25.563 35.555 0 61.531 25.563t26.36 61.531q-.4 36.351-26.36 62.109T944.5 1003.3zm77.5-826.972l-13.172 577.688H880.185l-12.8-577.688z"/></svg>